<svg width="23" height="26" viewBox="0 0 23 26" fill="none" xmlns="http://www.w3.org/2000/svg">
<g id="article">
<mask id="mask0_2104_813" style="mask-type:alpha" maskUnits="userSpaceOnUse" x="0" y="0" width="23" height="26">
<rect id="Bounding box" x="0.25" y="0.5" width="22.5" height="25" fill="#D9D9D9"/>
</mask>
<g mask="url(#mask0_2104_813)">
<path id="article_2" d="M7.69792 18.2083H14.9896V16.125H7.69792V18.2083ZM7.69792 14.0417H18.1146V11.9583H7.69792V14.0417ZM7.69792 9.875H18.1146V7.79167H7.69792V9.875ZM5.61458 22.375C5.04167 22.375 4.55122 22.171 4.14323 21.763C3.73524 21.355 3.53125 20.8646 3.53125 20.2917V5.70833C3.53125 5.13542 3.73524 4.64497 4.14323 4.23698C4.55122 3.82899 5.04167 3.625 5.61458 3.625H20.1979C20.7708 3.625 21.2613 3.82899 21.6693 4.23698C22.0773 4.64497 22.2812 5.13542 22.2812 5.70833V20.2917C22.2812 20.8646 22.0773 21.355 21.6693 21.763C21.2613 22.171 20.7708 22.375 20.1979 22.375H5.61458ZM5.61458 20.2917H20.1979V5.70833H5.61458V20.2917Z" fill="#626262"/>
</g>
</g>
</svg>
